#tb 0: 1/44100
#media_type 0: audio
#codec_id 0: pcm_s16le
#sample_rate 0: 44100
#channel_layout_name 0: stereo
0,          0,          0,      512,     2048, 0xccb10170
0,        512,        512,      512,     2048, 0xc51cf8e7
0,       1024,       1024,      512,     2048, 0x959eef2d
0,       1536,       1536,      512,     2048, 0x559f0751
0,       2048,       2048,      512,     2048, 0x4c4c08e1
0,       2560,       2560,      512,     2048, 0x41c3fd6f
0,       3072,       3072,      512,     2048, 0x4c92f8d2
0,       3584,       3584,      512,     2048, 0x9defee05
0,       4096,       4096,      512,     2048, 0x2d33f4dc
0,       4608,       4608,      512,     2048, 0xd854eeca
0,       5120,       5120,      512,     2048, 0xdb55eaf7
0,       5632,       5632,      512,     2048, 0x2bac060d
0,       6144,       6144,      512,     2048, 0x91beec0f
0,       6656,       6656,      512,     2048, 0x3262f0da
0,       7168,       7168,      512,     2048, 0xf00708a6
0,       7680,       7680,      512,     2048, 0xc90cfa02
0,       8192,       8192,      512,     2048, 0x09e9f413
0,       8704,       8704,      512,     2048, 0xcd0d0c36
0,       9216,       9216,      512,     2048, 0x6f6bff82
0,       9728,       9728,      512,     2048, 0x18a40912
